PathFileType	3	(X/Y/Z)	D:\ViconData\Biomechanics course\HT2024\Leo31oct\Walk_Norm15.trc
DataRate	CameraRate	NumFrames	NumMarkers	Units	OrigDataRate	OrigDataStartFrame	OrigNumFrames
100.0	100.0	4	53	mm	100.0	264	210	
Frame#	Time	LFHD			RFHD			LBHD			RBHD			C7			T10			CLAV			STRN			RBAK			LSHO			LUPA			LELB			LFRM			LWRA			LWRB			LFIN			RSHO			RUPA			RELB			RFRM			RWRA			RWRB			RFIN			LASI			RASI			LPSI			RPSI			LTHI			LTHAP			LTHAD			LKNE			LKNM			LTIB			LTIAP			LTIAD			LANK			LMED			LHEE			LTOE			RTHI			RTHAP			RTHAD			RKNE			RKNM			RTIB			RTIAP			RTIAD			RANK			RMED			RHEE			RTOE			LPel			RPel			
		X1	Y1	Z1	X2	Y2	Z2	X3	Y3	Z3	X4	Y4	Z4	X5	Y5	Z5	X6	Y6	Z6	X7	Y7	Z7	X8	Y8	Z8	X9	Y9	Z9	X10	Y10	Z10	X11	Y11	Z11	X12	Y12	Z12	X13	Y13	Z13	X14	Y14	Z14	X15	Y15	Z15	X16	Y16	Z16	X17	Y17	Z17	X18	Y18	Z18	X19	Y19	Z19	X20	Y20	Z20	X21	Y21	Z21	X22	Y22	Z22	X23	Y23	Z23	X24	Y24	Z24	X25	Y25	Z25	X26	Y26	Z26	X27	Y27	Z27	X28	Y28	Z28	X29	Y29	Z29	X30	Y30	Z30	X31	Y31	Z31	X32	Y32	Z32	X33	Y33	Z33	X34	Y34	Z34	X35	Y35	Z35	X36	Y36	Z36	X37	Y37	Z37	X38	Y38	Z38	X39	Y39	Z39	X40	Y40	Z40	X41	Y41	Z41	X42	Y42	Z42	X43	Y43	Z43	X44	Y44	Z44	X45	Y45	Z45	X46	Y46	Z46	X47	Y47	Z47	X48	Y48	Z48	X49	Y49	Z49	X50	Y50	Z50	X51	Y51	Z51	X52	Y52	Z52	X53	Y53	Z53	
264	2.63	172.715	1687.7124	-1071.2753	289.37039	1688.7104	-1074.319				287.05542	1700.0922	-1219.7043	230.22302	1552.9771	-1013.4696	234.17996	1320.4315	-936.87183	226.98085	1471.6554	-1134.8191	224.88451	1278.8174	-1170.7448	318.0849	1442.9248	-955.70673	65.103134	1510.5956	-1077.6899	-38.58115	1232.4542	-1036.1091	-50.510509	1153.8137	-1027.9911	-56.437084	1031.4276	-1050.5352	-4.3690739	894.73993	-1118.6155	-36.13269	881.76068	-1059.9689	-36.559517	808.19958	-1137.358	385.76044	1500.6176	-1083.8605	491.31769	1239.3623	-1056.1045	510.86121	1157.4097	-1046.3917	518.59698	1035.3097	-1119.709	490.33801	887.6496	-1140.307	466.25912	900.27673	-1206.1041	499.7558	822.83594	-1232.8927	108.55345	1040.4503	-1127.2052	348.83307	1046.9528	-1126.9882	176.50439	1061.9001	-937.64661	260.50659	1068.6187	-937.33099	59.063892	666.5119	-1175.1487	128.29228	755.86786	-1252.6892	127.49847	640.6814	-1286.2341	74.355659	537.53278	-1206.0756				79.444504	282.01877	-1135.9724	105.84481	431.31482	-1242.0164	112.90058	220.41756	-1170.3728	101.15161	121.62569	-1104.6731				150.34644	104.63223	-1040.9071	117.60999	71.547691	-1191.0841	359.75259	613.94611	-1047.0911	290.93237	707.24286	-1143.6622	285.63184	621.49677	-1128.0253	345.60464	505.37646	-1036.2998				320.93073	232.56616	-951.31482	293.94913	421.30276	-1066.7421	273.53174	225.59512	-997.75006	285.78464	101.46369	-913.46259				242.39838	74.769249	-850.57983	258.38361	49.54327	-1009.2089	63.208817	1061.4347	-1043.6477	367.88074	1076.8058	-992.60632
265	2.64	172.31973	1686.9985	-1083.5883	288.96484	1688.2622	-1086.5975				286.6929	1700.0184	-1231.9689	229.82845	1552.4764	-1026.0306	233.689	1319.9745	-949.06757	226.93607	1471.1492	-1147.3516	225.11313	1278.2998	-1183.1047	317.63638	1442.4824	-968.02618	64.728203	1509.998	-1090.7454	-38.60677	1232.455	-1044.9731	-50.334827	1154.1482	-1035.1072	-58.140663	1031.2217	-1053.4094	-8.8257542	890.995	-1117.0916	-39.789684	880.84088	-1057.4524	-42.634502	803.85333	-1131.2225	385.54956	1500.3049	-1095.9799	491.8793	1239.2329	-1069.4385	511.68774	1157.2424	-1060.4189	519.41718	1036.4458	-1135.8141	490.97452	889.24408	-1159.3414	467.05746	903.27899	-1224.9093	500.48703	826.38269	-1253.2317	108.76545	1040.032	-1140.9823	349.05319	1046.5214	-1138.4454	174.72653	1061.4404	-950.83276	258.70245	1068.1173	-949.69275	58.733875	665.86688	-1187.804	128.53358	755.15753	-1265.5314	127.92107	639.85883	-1298.524	73.655365	535.75696	-1219.0297				78.734024	275.60428	-1165.1682	105.51949	431.56473	-1260.6141	112.2275	216.42131	-1203.6257	100.24966	113.55884	-1145.0887				149.1627	92.495316	-1082.3364	116.9088	68.987328	-1234.5237	359.81873	614.00427	-1053.3735	291.26196	706.38666	-1152.1553	286.01834	620.63458	-1135.3412	345.6633	505.4584	-1041.3499				320.8674	233.4435	-953.34698	294.19101	420.97311	-1070.8945	273.63235	225.93199	-999.89453	285.58539	102.6543	-914.24286				242.04085	76.551064	-851.2204	258.35529	49.806305	-1009.5266	62.560879	1060.9556	-1057.9694	366.61868	1076.3583	-1003.8309
266	2.65	171.8631	1686.0892	-1095.9941	288.49768	1687.5992	-1098.9324				286.31583	1699.7262	-1244.2928	229.33806	1551.7837	-1038.6681	233.07231	1319.3262	-961.31635	226.83168	1470.4305	-1159.9612	225.28658	1277.563	-1195.5231	317.06891	1441.8464	-980.38965	64.281189	1509.194	-1103.9406	-38.720203	1232.3643	-1053.9521	-50.248741	1154.4302	-1042.3492	-59.812229	1031.1056	-1056.5156	-13.109154	887.66791	-1115.8309	-43.257065	880.26294	-1055.3286	-48.346046	800.07123	-1125.3923	385.26697	1499.7783	-1108.1355	492.33252	1238.8927	-1082.6998	512.401	1156.8734	-1074.3416	520.16931	1037.3928	-1151.7367	491.56897	890.68591	-1178.1326	467.84058	906.09338	-1243.4677	501.22745	829.75378	-1273.2661	108.95705	1039.3584	-1154.8385	349.24161	1045.9414	-1149.9769	172.91968	1060.759	-964.11121	256.86563	1067.4139	-962.13843	58.415733	664.54016	-1199.6088	128.67058	753.50629	-1277.8225	128.18147	638.17493	-1310.0477	72.864655	533.54968	-1231.4482				78.025223	269.76755	-1194.2971	105.20668	431.66208	-1278.707	111.66399	213.27179	-1236.6365	99.471352	106.73846	-1185.6605				147.90948	81.786385	-1124.0363	116.69987	67.749466	-1277.7882	359.90622	614.01044	-1059.7239	291.67154	705.44037	-1160.7278	286.46841	619.70734	-1142.7679	345.73282	505.49017	-1046.4929				320.81552	234.32405	-955.43335	294.45053	420.58618	-1075.1282	273.75229	226.24942	-1002.0831	285.39737	103.8591	-915.04315				241.7039	78.361992	-851.88306	258.33234	50.057983	-1009.8248	61.892502	1060.2089	-1072.3687	365.31488	1075.7496	-1015.1277
267	2.66	171.3387	1684.9979	-1108.4998	287.96283	1686.7332	-1111.3314				285.9162	1699.2234	-1256.6843	228.74908	1550.9094	-1051.3864	232.3364	1318.4948	-973.62695	226.6577	1469.5104	-1172.6525	225.39468	1276.6176	-1208.011	316.38309	1441.0273	-992.80652	63.755573	1508.1941	-1117.269	-38.933117	1232.1913	-1063.0469	-50.267563	1154.6642	-1049.7219	-61.452335	1031.0717	-1059.8867	-17.196749	884.75824	-1114.91	-46.524185	880.00098	-1053.6699	-53.648758	796.84412	-1119.9995	384.90607	1499.0483	-1120.3402	492.66736	1238.3496	-1095.8948	512.99036	1156.3104	-1088.1609	520.84735	1038.1481	-1167.469	492.11963	891.96606	-1196.6559	468.60861	908.70221	-1261.7582	501.98419	832.92822	-1292.967	109.12678	1038.4464	-1168.7708	349.39835	1045.2144	-1161.6007	171.0956	1059.8671	-977.48193	255.00876	1066.5162	-974.67749	58.053093	662.57568	-1210.6572	128.70889	750.9342	-1289.5682	128.27487	635.71448	-1320.8745	72.002586	530.99609	-1243.4833				77.358025	264.62015	-1223.2048	104.9269	431.63712	-1296.3468	111.26419	211.03177	-1269.1774	98.8955	101.28745	-1225.9926				146.69873	72.674988	-1165.5852	117.02473	67.873245	-1320.4751	360.01089	613.95868	-1066.1713	292.12939	704.39771	-1169.3772	286.96146	618.70813	-1150.3032	345.80969	505.46271	-1051.7485				320.78125	235.20502	-957.5882	294.71777	420.13165	-1079.4556	273.89001	226.54361	-1004.3203	285.23087	105.07843	-915.86932				241.4044	80.20562	-852.57013	258.31683	50.301559	-1010.1066	61.206711	1059.2148	-1086.8385	363.9787	1074.9811	-1026.5162
